<?xml version="1.0" encoding="UTF-8"?><svg id="a" xmlns="http://www.w3.org/2000/svg" viewBox="0 0 1440 271.06">
  <defs>
    <style>
      .b {
        fill: currentColor;
      }
    </style>
  </defs>
  <path class="b" d="M95.54,105.86c-23.85-9.19-40.2-18.37-48.61-27.3-8.16-8.67-12.29-18.58-12.29-29.46,0-11.52,4.45-21.23,13.61-29.7,8.96-8.29,22.33-12.49,39.74-12.49,35.83,0,64.92,26.07,70.99,70.4h5.83V3.78h-5.86s.24,11.34-13.17,11.34c-5.26,0-6.89-.96-21.52-7.36C112.32,2.54,100.45,0,87.99,0c-23.16,0-42.95,6.55-58.81,19.46C13.16,32.5,5.04,49.07,5.04,68.73c0,18.43,5.7,33.38,16.94,44.43,11.02,10.83,29.86,22.08,55.95,33.42,3.06,1.45,7.88,3.56,16.12,7.06,6.18,2.63,11.79,5.11,15.4,6.8,3.01,1.41,7.34,3.58,12.88,6.44,5.75,2.97,9.65,5.2,11.94,6.84,2.13,1.52,4.73,3.63,7.74,6.08l1.5,1.22c3.5,2.84,6.02,5.67,7.47,8.42,1.62,3.05,2.97,6.34,4.15,10.04,1.13,3.56,1.68,7.44,1.68,11.86,0,16.84-5.69,29.94-16.9,38.95-11.45,9.2-27.23,13.86-46.89,13.86-23.43,0-42.45-7.67-56.53-22.8-14.22-15.27-24.2-34.71-29.65-57.77l-.45-1.9H0v84.98H6.07s2.9-11.08,15.12-11.08c2.45,0,9.63,.99,30.21,7.62,16.19,5.22,30.32,7.86,41.99,7.86,29.39,0,52.93-6.97,69.97-20.71,17.34-13.98,26.13-32.62,26.13-55.4,0-18.78-6.61-34.82-19.64-47.67-12.6-12.42-74.31-41.42-74.31-41.42Z" />
  <path class="b" d="M206.93,77.31h6.44l.27-2.16c2.45-19.58,9.66-35.38,21.43-46.98,11.77-11.6,28.03-17.48,48.33-17.48h16.98v249.49h-33.49v6.73h107.38v-6.73h-33.49V10.69h16.98c20.3,0,36.62,5.94,48.51,17.66,12.02,11.85,19.17,27.58,21.25,46.76l.24,2.2h6.48V3.78H206.93V77.31Z" />
  <path class="b" d="M665.36,191.34c-3.25-29.56-19.16-53.52-45.03-60.34,13.84-3.03,29.7-8.17,38.8-15.32,13.17-10.35,19.85-25.05,19.85-43.71,0-23.1-8.55-40.51-25.41-51.75-16.54-11.03-43.74-16.62-72.43-16.62h-104.56v6.91h33.49v249.49h-33.49v6.73h107.03v-6.73h-33.49v-125.25h7.59c11.64,0,28.29,.1,28.29,.1,39.37,0,36.68,50.14,43.36,85.14,5.35,28.01,20.75,46.92,57.2,46.92h20.48v-6.91c-12.55,0-34.84-6.46-41.69-68.66Zm-78.09-63.32h-36.79V10.51h31.38c19.68,0,37.5,5.27,44.54,15.66,7.24,10.69,10.92,26.04,10.92,45.61s-3.83,33.25-11.37,42.47c-7.58,9.26-23.11,13.77-38.68,13.77Z" />
  <path class="b" d="M1106.98,10.69h16.98c20.3,0,36.62,5.94,48.5,17.66,12.02,11.85,19.17,27.58,21.25,46.76l.24,2.2h6.48V3.78h-227.3V77.31h6.44l.27-2.16c2.45-19.58,9.66-35.38,21.43-46.98,11.77-11.6,28.03-17.48,48.33-17.48h16.98v249.49h-33.49v6.73h107.38v-6.73h-33.49V10.69Z" />
  <path class="b" d="M1405.76,260.18L1309.43,1.26h-5.96l-95.43,258.92h-23.97v6.73h57.51v-6.73h-26.13l29.89-81.85h89.47l30.23,81.85h-32.06v6.73h107.02v-6.73h-34.24Zm-157.89-88.59l41.86-113.61,42.52,113.61h-84.38Z" />
  <path class="b" d="M859.59,1.26h-5.96l-95.43,258.92h-23.97v6.73h57.51v-6.73h-26.13l29.89-81.85h89.47l30.23,81.85h-32.06v6.73h107.02v-6.73h-34.24L859.59,1.26Zm-61.56,170.33l41.86-113.61,42.52,113.61h-84.38Z" />
</svg>